<mxfile host="app.diagrams.net" modified="2021-07-13T01:43:13.267Z" agent="5.0 (Windows NT 10.0; WOW64) AppleWebKit/537.36 (KHTML, like Gecko) Chrome/86.0.4240.75 Safari/537.36" etag="2XGfgUhcUh5BkNniulL1" version="14.8.6" type="github">
  <diagram id="GJf43r-7LbxpunQonn26" name="第 1 页">
    <mxGraphModel dx="1052" dy="554" grid="1" gridSize="10" guides="1" tooltips="1" connect="1" arrows="1" fold="1" page="1" pageScale="1" pageWidth="827" pageHeight="1169" math="0" shadow="0">
      <root>
        <mxCell id="0" />
        <mxCell id="1" parent="0" />
        <mxCell id="bDL_2r86WqNwmGLxh7qB-3" value="&lt;h2&gt;&lt;font face=&quot;Times New Roman&quot;&gt;conv&lt;/font&gt;&lt;/h2&gt;" style="whiteSpace=wrap;html=1;shape=mxgraph.basic.isocube;isoAngle=15;direction=east;fillColor=#dae8fc;strokeColor=#6c8ebf;" parent="1" vertex="1">
          <mxGeometry x="80" y="160" width="44.29457081228208" height="80" as="geometry" />
        </mxCell>
        <mxCell id="bDL_2r86WqNwmGLxh7qB-8" value="&lt;h2&gt;&lt;font face=&quot;Times New Roman&quot;&gt;conv&lt;/font&gt;&lt;/h2&gt;" style="whiteSpace=wrap;html=1;shape=mxgraph.basic.isocube;isoAngle=15;direction=east;fillColor=#dae8fc;strokeColor=#6c8ebf;" parent="1" vertex="1">
          <mxGeometry x="277.8511347111783" y="160" width="44.29457081228208" height="80" as="geometry" />
        </mxCell>
        <mxCell id="bDL_2r86WqNwmGLxh7qB-20" value="" style="endArrow=none;html=1;exitX=1;exitY=0.5;exitDx=0;exitDy=0;exitPerimeter=0;entryX=0;entryY=0.5;entryDx=0;entryDy=0;entryPerimeter=0;" parent="1" target="bDL_2r86WqNwmGLxh7qB-8" edge="1">
          <mxGeometry x="201.1198039353884" y="200.07" width="41.21964468261243" height="50" as="geometry">
            <mxPoint x="246.10929654531583" y="200" as="sourcePoint" />
            <mxPoint x="335.5617970321971" y="320" as="targetPoint" />
          </mxGeometry>
        </mxCell>
        <mxCell id="bDL_2r86WqNwmGLxh7qB-31" value="&lt;h2&gt;&lt;font face=&quot;Times New Roman&quot;&gt;conv&lt;/font&gt;&lt;/h2&gt;" style="whiteSpace=wrap;html=1;shape=mxgraph.basic.isocube;isoAngle=15;direction=east;fillColor=#dae8fc;strokeColor=#6c8ebf;" parent="1" vertex="1">
          <mxGeometry x="481.74542918771795" y="160" width="44.29457081228208" height="80" as="geometry" />
        </mxCell>
        <mxCell id="bDL_2r86WqNwmGLxh7qB-33" value="" style="endArrow=none;html=1;exitX=1;exitY=0.5;exitDx=0;exitDy=0;exitPerimeter=0;entryX=0;entryY=0.5;entryDx=0;entryDy=0;entryPerimeter=0;" parent="1" target="bDL_2r86WqNwmGLxh7qB-31" edge="1">
          <mxGeometry x="405.0140984119281" y="200.07" width="41.21964468261243" height="50" as="geometry">
            <mxPoint x="450.0035910218556" y="200" as="sourcePoint" />
            <mxPoint x="539.4560915087368" y="320" as="targetPoint" />
          </mxGeometry>
        </mxCell>
        <mxCell id="zZluQEBC1r8uh6oRfPDT-1" value="" style="group" vertex="1" connectable="0" parent="1">
          <mxGeometry x="80" y="480" width="440" height="80" as="geometry" />
        </mxCell>
        <mxCell id="zZluQEBC1r8uh6oRfPDT-2" value="&lt;h2&gt;&lt;font face=&quot;Times New Roman&quot;&gt;conv&lt;/font&gt;&lt;/h2&gt;" style="whiteSpace=wrap;html=1;shape=mxgraph.basic.isocube;isoAngle=15;direction=east;fillColor=#dae8fc;strokeColor=#6c8ebf;" vertex="1" parent="zZluQEBC1r8uh6oRfPDT-1">
          <mxGeometry width="44.29457081228208" height="80" as="geometry" />
        </mxCell>
        <mxCell id="zZluQEBC1r8uh6oRfPDT-3" value="" style="verticalLabelPosition=bottom;verticalAlign=top;html=1;shape=mxgraph.flowchart.summing_function;" vertex="1" parent="zZluQEBC1r8uh6oRfPDT-1">
          <mxGeometry x="148.3914682204029" y="30" width="17.717828324912837" height="20" as="geometry" />
        </mxCell>
        <mxCell id="zZluQEBC1r8uh6oRfPDT-4" value="&lt;h2&gt;&lt;font face=&quot;Times New Roman&quot;&gt;conv&lt;/font&gt;&lt;/h2&gt;" style="whiteSpace=wrap;html=1;shape=mxgraph.basic.isocube;isoAngle=15;direction=east;fillColor=#dae8fc;strokeColor=#6c8ebf;" vertex="1" parent="zZluQEBC1r8uh6oRfPDT-1">
          <mxGeometry x="197.8511347111783" width="44.29457081228208" height="80" as="geometry" />
        </mxCell>
        <mxCell id="zZluQEBC1r8uh6oRfPDT-5" value="" style="endArrow=none;html=1;" edge="1" parent="zZluQEBC1r8uh6oRfPDT-1">
          <mxGeometry width="41.21964468261243" height="50" as="geometry">
            <mxPoint x="44.28990822588079" y="39.428571428571445" as="sourcePoint" />
            <mxPoint x="148.39072085740474" y="39" as="targetPoint" />
          </mxGeometry>
        </mxCell>
        <mxCell id="zZluQEBC1r8uh6oRfPDT-6" value="" style="endArrow=none;html=1;exitX=1;exitY=0.5;exitDx=0;exitDy=0;exitPerimeter=0;entryX=0;entryY=0.5;entryDx=0;entryDy=0;entryPerimeter=0;" edge="1" parent="zZluQEBC1r8uh6oRfPDT-1" source="zZluQEBC1r8uh6oRfPDT-3" target="zZluQEBC1r8uh6oRfPDT-4">
          <mxGeometry x="121.11980393538839" y="40.06999999999999" width="41.21964468261243" height="50" as="geometry">
            <mxPoint x="230.83001022262962" y="160" as="sourcePoint" />
            <mxPoint x="255.5617970321971" y="160" as="targetPoint" />
          </mxGeometry>
        </mxCell>
        <mxCell id="zZluQEBC1r8uh6oRfPDT-7" value="" style="verticalLabelPosition=bottom;verticalAlign=top;html=1;shape=mxgraph.flowchart.summing_function;" vertex="1" parent="zZluQEBC1r8uh6oRfPDT-1">
          <mxGeometry x="346.24576269694256" y="30" width="17.717828324912837" height="20" as="geometry" />
        </mxCell>
        <mxCell id="zZluQEBC1r8uh6oRfPDT-8" value="&lt;h2&gt;&lt;font face=&quot;Times New Roman&quot;&gt;conv&lt;/font&gt;&lt;/h2&gt;" style="whiteSpace=wrap;html=1;shape=mxgraph.basic.isocube;isoAngle=15;direction=east;fillColor=#dae8fc;strokeColor=#6c8ebf;" vertex="1" parent="zZluQEBC1r8uh6oRfPDT-1">
          <mxGeometry x="395.705429187718" width="44.29457081228208" height="80" as="geometry" />
        </mxCell>
        <mxCell id="zZluQEBC1r8uh6oRfPDT-9" value="" style="endArrow=none;html=1;" edge="1" parent="zZluQEBC1r8uh6oRfPDT-1">
          <mxGeometry x="197.85429447653968" width="41.21964468261243" height="50" as="geometry">
            <mxPoint x="242.14420270242053" y="39.428571428571445" as="sourcePoint" />
            <mxPoint x="346.2450153339444" y="39" as="targetPoint" />
          </mxGeometry>
        </mxCell>
        <mxCell id="zZluQEBC1r8uh6oRfPDT-10" value="" style="endArrow=none;html=1;exitX=1;exitY=0.5;exitDx=0;exitDy=0;exitPerimeter=0;entryX=0;entryY=0.5;entryDx=0;entryDy=0;entryPerimeter=0;" edge="1" parent="zZluQEBC1r8uh6oRfPDT-1" source="zZluQEBC1r8uh6oRfPDT-7" target="zZluQEBC1r8uh6oRfPDT-8">
          <mxGeometry x="318.9740984119281" y="40.06999999999999" width="41.21964468261243" height="50" as="geometry">
            <mxPoint x="428.6843046991693" y="160" as="sourcePoint" />
            <mxPoint x="453.41609150873677" y="160" as="targetPoint" />
          </mxGeometry>
        </mxCell>
        <mxCell id="zZluQEBC1r8uh6oRfPDT-14" value="&lt;h6&gt;&lt;font face=&quot;Times New Roman&quot;&gt;decoder&lt;/font&gt;&lt;/h6&gt;" style="shape=cube;whiteSpace=wrap;html=1;boundedLbl=1;backgroundOutline=1;darkOpacity=0.05;darkOpacity2=0.1;size=10;fillColor=#fff2cc;strokeColor=#d6b656;" vertex="1" parent="1">
          <mxGeometry x="200" y="185" width="50" height="30" as="geometry" />
        </mxCell>
        <mxCell id="zZluQEBC1r8uh6oRfPDT-16" value="" style="endArrow=none;html=1;" edge="1" parent="1">
          <mxGeometry x="80.00429447653968" y="160.5" width="41.21964468261243" height="50" as="geometry">
            <mxPoint x="124.29420270242045" y="199.92857142857144" as="sourcePoint" />
            <mxPoint x="200" y="200" as="targetPoint" />
          </mxGeometry>
        </mxCell>
        <mxCell id="zZluQEBC1r8uh6oRfPDT-17" value="&lt;h6&gt;&lt;font face=&quot;Times New Roman&quot;&gt;decoder&lt;/font&gt;&lt;/h6&gt;" style="shape=cube;whiteSpace=wrap;html=1;boundedLbl=1;backgroundOutline=1;darkOpacity=0.05;darkOpacity2=0.1;size=10;fillColor=#fff2cc;strokeColor=#d6b656;" vertex="1" parent="1">
          <mxGeometry x="400" y="185" width="50" height="30" as="geometry" />
        </mxCell>
        <mxCell id="zZluQEBC1r8uh6oRfPDT-19" value="" style="endArrow=none;html=1;" edge="1" parent="1">
          <mxGeometry x="277.8542944765397" y="160.07" width="41.21964468261243" height="50" as="geometry">
            <mxPoint x="322.14420270242056" y="199.49857142857144" as="sourcePoint" />
            <mxPoint x="400" y="200" as="targetPoint" />
          </mxGeometry>
        </mxCell>
      </root>
    </mxGraphModel>
  </diagram>
</mxfile>
